<?xml version="1.0" standalone="no"?><!DOCTYPE svg PUBLIC "-//W3C//DTD SVG 1.1//EN" "http://www.w3.org/Graphics/SVG/1.1/DTD/svg11.dtd"><svg t="1642211133354" class="icon" viewBox="0 0 1024 1024" version="1.1" xmlns="http://www.w3.org/2000/svg" p-id="2563" xmlns:xlink="http://www.w3.org/1999/xlink" width="128" height="128"><defs><style type="text/css"></style></defs><path d="M610.090667 64h-6.784c-171.584 0-301.013333 125.973333-301.013334 293.034667v480.576L187.733333 718.762667a34.282667 34.282667 0 0 0-49.365333-0.298667 36.501333 36.501333 0 0 0-0.277333 50.688l172.970666 179.477333a34.304 34.304 0 0 0 49.386667 0.298667l0.064-0.106667 0.106667-0.085333 173.930666-177.962667a36.48 36.48 0 0 0 0.064-50.688 34.261333 34.261333 0 0 0-49.386666-0.064l-113.066667 115.690667V357.034667c0-126.208 99.370667-221.354667 231.146667-221.354667h6.762666c127.232 0 216.085333 91.029333 216.085334 221.354667V924.16c0 19.818667 15.616 35.84 34.922666 35.84S896 944 896 924.16V357.034667C896 187.221333 775.765333 64 610.090667 64z" fill="#ffffff" p-id="2564"></path></svg>